<?xml version="1.0" encoding="utf-8"?>
<!-- Generator: Adobe Illustrator 18.0.0, SVG Export Plug-In . SVG Version: 6.00 Build 0)  -->
<!DOCTYPE svg PUBLIC "-//W3C//DTD SVG 1.1//EN" "http://www.w3.org/Graphics/SVG/1.1/DTD/svg11.dtd">
<svg version="1.1" id="Layer_1" xmlns="http://www.w3.org/2000/svg" xmlns:xlink="http://www.w3.org/1999/xlink" x="0px" y="0px"
	 viewBox="0 0 556 431" enable-background="new 0 0 556 431" xml:space="preserve">
<g>
	<path fill="#FFFFFF" d="M54.2,34.2c-6.4,66.2-7.2,132.9-2.5,199.2c0.1,1.2,0.2,2.6,1,3.6c1.1,1.4,3,1.7,4.7,1.9
		c3.8,0.5,7.5,0.9,11.3,1.4c3.9,0.5,8.4,0.8,11.3-1.9c2.2-2,2.8-5.2,3.3-8.1c9.3-58.3,2.8-118.1,10.5-176.6c1.1-8,2.1-17.1-2.9-23.4
		c-7.5-9.4-22.2-6.3-33.4-2.3c-3,1-6.6,3.3-5.7,6.3"/>
</g>
<g>
	<path fill="#FFFFFF" d="M163.2,40.3c-12.9-13.2-32.8-16.3-51.3-17.3c-15.6-0.9-31.3-0.8-46.9,0.1L89.4,131
		c16.8,1.6,34.2-0.3,49.6-7.4s28.4-19.9,33.8-36S175,52.5,163.2,40.3z M127.8,82.3c-7.1,13.5-25.4,19.7-39.3,13.3
		c1.3-14.3,2.7-28.6,4-43c-0.9-0.1-1.8-0.1-2.7-0.2l2.7-0.1c0,0.1,0,0.2,0,0.3c11.6,1,22.8,5.4,31.9,12.7c1.9,1.6,3.8,3.3,4.8,5.6
		C130.8,74.5,129.6,78.7,127.8,82.3z"/>
</g>
<g>
	<path fill="#FFFFFF" d="M83.3,22.5c-11.8,0.1-23.6,0.2-35.3,0.2c-12.4,0.1-25.6-0.2-36-6.9c0.2,2.7,2.4,4.8,4.5,6.4
		c8.5,6.5,19.1,10.3,29.8,10.8c-8.9,1.5-17.4,5.6-23.9,11.9c9.3-0.5,23.3-2.5,32.5-3L83.3,22.5z"/>
</g>
<g>
	<path fill="#FFFFFF" d="M162.9,85c6.7,5.1,22.4,8.8,30.8,8.4c2.2-0.1,4.9-0.9,5.3-3.1c-7.4-1.1-16.3-5.4-19.8-12
		c-1.9-3.6-5-9.7-5.9-13.7c-1.5-6.2-3.7-10.8-5.2-17L162.9,85z"/>
</g>
<g>
	<path fill="#FFFFFF" d="M96.3,129.3c-2.2,2.4-0.6,8.3,1.3,11c0.1-3.7,3.1-7.2,6.8-7.9c-1.1,7.3,2.2,15.1,8.1,19.5
		c-4.8-6.9-1.5-17,4.9-22.4c6.4-5.4,15-7.4,23.2-9.2L96.3,129.3z"/>
</g>
<g>
	<path fill="#FFFFFF" d="M198.4,142.6c-1.5,8.5-4.2,16.7-8,24.4c0.5-6.3-2.5-12.7-7.6-16.4c-1.3,9.7-2.7,19.8-8.3,27.8
		c-5.6,8-16.8,13-25.5,8.5c6.7-5.1,13.7-10.5,17.5-18c3.8-7.5,3.5-17.9-3-23.2c-12.7-10.5-34.1,6-47.7-3.3c1.6,3.5,4.5,6.4,8,8.1
		l-1.2,1.2c-13.7,5.7-22.8,20.9-21.4,35.7c0.8,7.9,4.2,15.4,5.1,23.3c0.9,7.9-1.9,17.2-9.3,20.1c8.5-1.6,16.3-6.7,21.2-13.9
		c18.4,14,45.8,9.2,64.6-4.4c11-7.9,20.3-18.9,24-32S208,152.2,198.4,142.6z M137.7,179.7l-1.2-0.8c-4.5-0.3-8.5-4.4-8.6-9
		c0.9-4.1,4.1-7.6,8.1-9c4-1.4,8.7-0.5,11.9,2.1c0.9,0.8,1.8,1.8,1.6,3c-0.1,0.7-0.6,1.3-1.1,1.8
		C144.8,171.9,141.3,175.8,137.7,179.7z"/>
</g>
<g>
	<path fill="#FFFFFF" d="M209.9,126.3c0.9,13.3,1.2,61.1,0.5,66.3c-1.6,12.1,0.7,24.3,1.5,36.5c0.3,5.1,0.5,10.5,3.6,14.8
		c3.2,4.3,10.7,6.4,14.7,2.8c2.4-2.1,2.8-5.4,3-8.3c2.2-30.8-2.8-61.8,0.2-92.5c0.7-7,1.2-15.3-5-19.7c-5-3.5-12.1-2.6-18.4-1.7"/>
</g>
<g>
	<path fill="#FFFFFF" d="M277.8,137.9c-2.2-5-5.8-8.8-9.8-11.4c-11.8-7.9-27.2-6.1-37.7,4.4l0.5,51.3c6.7,1.6,13.6,1.8,20.3,0.5
		c8.5-1.6,17.1-5.8,22.9-14C279.7,160.4,282,147.5,277.8,137.9z M251.2,162.1c-0.6,1.8-1.8,3.1-3,4.2c-4.8,4.3-10.7,6.5-16.5,6.1
		l-0.3-18.1c2.6-1.6,5.4-2.7,8.3-3.3c2.9-0.6,6-0.7,8.5,1.2C250.8,154.1,252.5,158.5,251.2,162.1z"/>
</g>
<g>
	<path fill="#FFFFFF" d="M220.8,123.8c-0.2-2.2-2.3-3.9-4.4-5c-6-3.4-13.4-4.9-20.4-4.2c8.8,3.8,15,13.3,14.6,22
		C214.8,133.2,220.8,128.8,220.8,123.8"/>
</g>
<g>
	<path fill="#FFFFFF" d="M220.4,126c0.1,0.3-0.6,0.4-0.7,0.1c-0.1-0.3,0.1-0.7,0.3-0.9c3.3-4.5,2.8-10.9-1.2-14.9
		c4.8,0.7,9,3.6,11.1,7.5c2.1,4,1.9,8.6,1.7,12.9c-4.7,0.9-9.8-1.5-11.8-5.4"/>
</g>
<g>
	<path fill="#FFFFFF" d="M353,128.7c-0.8-9.2-5.2-17.6-11.3-21.8c-4.2-2.8-8.9-3.7-13.6-3.8c-8.7-0.1-17.7,2.7-24.5,9.7l-0.1,0.6
		c2.7,11.6,0.2,24.2,0.7,36.3c0.2,4,0.7,8,1.2,12c0.1,0.7,0.2,1.4,0.5,1.8c0.4,0.6,1.1,0.6,1.7,0.6c7.2,0.2,14.3-0.5,21.4-2.2
		c5.9-1.4,12-3.6,16.6-8.8C350.9,147.4,353.8,137.9,353,128.7z M332.1,135.8c-0.9,4.4-4.9,7.8-9.1,9.3c-4.3,1.5-8.9,1.5-13.5,1.5
		c1.1-3-0.5-14.3-0.2-16.8l0.2-2.1c3.5-4.1,9.5-6.2,14.7-4.6C329.4,124.8,333.2,130.5,332.1,135.8z"/>
</g>
<g>
	<path fill="#FFFFFF" d="M306,116.5c0.9-5.3,0.4-11-2.7-15.6c-3.1-4.6-9-7.9-14.9-7.2c2.6,3.4,3.3,7.8,1.9,11.7
		c-7-3.4-15.2-4.8-23.1-4.1c6.4,2.7,11.9,7.2,15.4,12.7c-4.3-0.3-23.1-1.1-26.2,1.7c3.6-0.4,17.6,6.6,20.6,9.7s7,12.6,7.4,16.6
		c2.5,27,3.6,44.9,3.2,72c0,3.7,0,11.5-0.7,15.1c-1.2,6.6,20.3,15.5,20.3,3.8c0-11,3.2-66.7,3.9-67.9c3.4-6.1-1.3-13-3.5-19.5
		c-3.8-11.5,0.4-23.9-1.3-35.8"/>
</g>
<g>
	<path fill="#FFFFFF" d="M464.6,126.3c-1.9,6.8-6.7,14.1-11.8,14.5c0.7-5.2-0.6-10.7-3.5-15c-1.5,12.6-22.5,37.3-45.1,22.5
		c7.5-1.8,15.1-4.2,20.9-9.1c5.9-4.9,9.8-12.9,8-20.4c-2.2-9.1-11.7-14.5-20.8-17.1c-9.1-2.6-25.9-3.3-30.1-9.8
		c-0.4,5.2,1.5,8.5,3.7,10.6c-8.6-1.4-16.7,5.3-20.6,13.1c-3.8,7.8-4.6,16.7-6.5,25.2c-1.9,8.5-5.5,17.3-13,21.9
		c5.4-0.2,10.7-1.3,15.7-3.3c2,11.2,12.4,18.9,23,23.1c20,8,33,11.3,52.6,2.4c7.1-3.2,19.2-13.4,23.5-20
		C467.6,153.9,468.5,131.3,464.6,126.3z M403.8,128.4c-0.9,3.7-5,5.6-8.8,6.5c-3.7,0.9-9.4,3.4-13.2,3.5c-4.7-4-4.7-12.2-0.4-16.7
		s11.8-5.2,17.2-2.2C401.9,121.2,404.7,124.8,403.8,128.4z"/>
</g>
<g>
	<path fill="#FFFFFF" d="M456.5,107.4c34.4,17.8,8.7,63.2,7.7,94c-0.2,5.4-0.1,11,1.7,16.1c1.8,5.2,21.5-5.5,20.2-13.8
		c-1.4-8.3-0.2-16.7,0.9-25c0.9-6.3,1.7-12.6,2.6-19c1.7-12.2,3.3-25-1.7-36.3C482.9,112.2,469,103.2,456.5,107.4"/>
</g>
<g>
	<path fill="#FFFFFF" d="M484.6,121.8c11.6-8.9,29.4-10,42.2-2.7c12.8,7.3,19.7,22.6,16.4,36.2c-0.6,2.3-1.4,4.6-2.9,6.6
		c-1.8,2.3-4.3,3.9-7.1,5.1c-4.8,2.1-10.4,3-15.5,1.6c-5.1-1.4-9.4-5.5-10-10.4c-0.6-4.9,3.2-10.1,8.5-10.7
		c-2.2,1.9-0.2,5.5,2.6,6.6c4.3,1.8,9.8,0.3,12.4-3.2c2.6-3.6,1.7-10.1-1.8-13c-0.9,1.9-5.9,6-8.2,6.1c1.4-2.1,2.3-6.5,0.7-8.5
		c-1.5-2.1-2-3.5-4.6-4.4c-10.5-3.6-23.5,0.9-28.9,10"/>
</g>
<g>
	<path fill="#FFFFFF" d="M170,248.8c10.3-4.2,19.3-11.1,28-18c-4.6,5.3-7.2,12.2-7.1,19.2c13.4-1.4,27.3,5.8,33.9,17.5
		c6.6,11.7,5.5,27.4-2.7,38.1c4.2-5.4,1.8-14.7-4.6-17.3c-4.1,4-8.3,8.1-12.4,12.1c3.8-6.7-3.2-14.7-10.4-17.5
		c-13.5-5.3-29.9-2.2-40.5,7.6c-3,2.8-5.6,6.1-7.9,9.4c-11.7,17-18.2,39.8-9.1,58.3c2.9,5.9,7.4,11.2,13.3,14c4,1.9,8.5,2.7,13,3.1
		c18.5,1.5,39.6-5.2,47.1-22.2c2.3,6.4,1.2,13.9-2.8,19.4c6.3-0.5,12.5-2.6,17.8-6c-4.6,24.4-29,40.9-53.5,44.6
		c-21.7,3.4-45.2-1.6-61.8-16s-24.9-38.7-17.7-59.5c-5.6,5.9-13.1,9.9-21.1,11.2C99.9,308.9,94,251.9,170,248.8"/>
</g>
<g>
	<path fill="#FFFFFF" d="M239.5,258.1c1.6-0.2,8.7,2.5,10.9,6.2c1.3,2.2,1.6,5,0.7,7.4c4.6-3.5,7.8-8.9,8.6-14.7
		c3.7,6.2,4.7,14,2.8,20.9c-2.7,9.7-10.7,18-10.3,28.1c0.1,1.4,0.3,2.9,1,4.1c1.1,1.9,3.3,3,5.4,3.8c4.8,1.6,10.1,2,14.9,0.5
		c4.8-1.6,9-5.2,10.6-10c0.7-2.1,1-4.4,1.2-6.7c0.6-7.3,1-14.6,1-21.9c0-3.6,0-7.2,0.8-10.8c0.8-3.5,2.5-7,5.4-9.1
		c0.1,2.4,0.4,4.7,1,7c2.2-6.9,8.1-12.4,15.1-14c-2.4,4.2-3.9,9-3.5,13.8c0.5,6.4,4.2,12,6.3,18.1c3,8.5,2.8,18,0.5,26.7
		c-1.3,4.8-3.2,9.4-6.1,13.4c-4.1,5.5-10.1,9.4-16.6,11.7s-13.4,3.1-20.2,3.1c-7,0-14.2-0.7-20.6-3.7c-6.4-3-11.8-8.5-13.4-15.3
		c-0.9-4-0.5-8.1-0.1-12.2c0.7-6.7,1.4-13.5,2-20.2c0.3-2.9,0.6-6,1.9-8.6C239.9,273.6,245.1,263.8,239.5,258.1z"/>
</g>
<g>
	<path fill="#FFFFFF" d="M325.8,205.4c3.4,29.3,6.8,59.9-3.1,87.7c-0.6,1.6-1.2,3.2-1.1,4.9c0.1,1.7,1.1,3.4,2.8,3.8
		c0.8,0.2,1.7,0,2.5-0.2c6.4-1.9,11.1-7.5,13.6-13.7c2.5-6.2,3.2-12.9,3.8-19.5c1.2-12.9,2.4-25.9,3.6-38.8c0.2-2.2,0.4-4.4,1.3-6.5
		c2.4-5.7,10.5-8.1,15.7-4.6c5.2,3.5,6,11.9,1.6,16.3c4.1-0.6,7.9-3.4,9.5-7.3c2.2,4.9,3.4,10.6,1.4,15.5c-2,5-8.1,8.4-12.9,6.2
		c3.3,3.8,9.2,4.5,13.9,2.6s8.1-5.9,10.7-10.2c4-6.7,6.2-14.6,5.3-22.3s-5.1-15.2-11.8-19.2c-5.9-3.6-13.4-4.2-20.1-2.4
		c-6.7,1.7-12.7,5.6-17.8,10.3c-0.6-5.3-4-10.2-8.7-12.6c-4.7-2.4-10.7-2.4-15.4,0.2c2.8,2.7,4.7,6.3,5.2,10.2"/>
</g>
<g>
	<path fill="#FFFFFF" d="M401.6,249.5c-0.8,15.9-5.1,33.4-8.5,50c-0.7,3.5-1.2,7.6,1.2,10.2c1.5,1.6,3.8,2.2,6.1,2.2
		c4.4-0.1,8.7-2.5,11-6.2c2.5-4,2.7-8.9,2.9-13.5c0.6-18.4,1.2-37-1.2-55.2c-0.2-1.3-0.3-2.6,0.1-3.9c0.7-1.8,2.5-2.8,4.3-3.4
		c5.2-1.7,11.4-0.6,15.2,3.3c3.8,4,4.3,10.8,0.7,14.9c5.5-1.2,9.9-6.7,9.8-12.4c4.1,4.4,5.2,11.7,1.7,16.5
		c-3.6,4.8-11.8,5.6-15.5,0.9c0.4,6,7.6,9.2,13.5,8.7c11.5-1.1,20.4-12.3,20.8-23.8c0.4-11.5-6.6-22.5-16.3-28.8
		c-5.6-3.7-12.3-6-19-5.8s-13.5,2.9-17.9,8.1c-1.1-8.2-11-13.8-18.6-10.6c1.5,1.7,2.7,3.7,3.4,5.9
		C395.2,206.5,402.4,233.6,401.6,249.5z"/>
</g>
<g>
	<path fill="#FFFFFF" d="M466.3,284c0.5,10,1.6,21.1,9.2,27.6c5,4.2,12.3,5.5,18.4,3.2c-0.1,13.9-4.3,27.8-11.9,39.4
		c-1.3,2-2.9,4.1-5.2,4.5c-4.9,1-7.9-5.3-8.1-10.3c-0.2-4.6,0.3-9.2,1.5-13.6c-3.5,0.7-6.7,3-8.6,6.2c-1.8-3.9-1.3-8.8,1.4-12.1
		c-6,1.9-10.5,7.4-12.1,13.4s-0.7,12.6,1.7,18.5c3.5,8.4,10.8,15.8,19.8,16.4c7.3,0.5,14.2-3.4,19.7-8.3
		c17.1-15.4,22.8-39.5,25.9-62.3c1.8-13.2,2.9-26.6,0.7-39.7c-0.7-4-1.7-8.1-4.3-11.3c-2.5-3.2-6.9-5.2-10.8-3.9
		c4.4,3,6.5,8.6,6.5,13.9s-1.9,10.5-4,15.4c-1.7,3.9-3.6,7.9-6.9,10.7c-3.3,2.7-8.3,3.9-11.9,1.6c-4.4-2.8-5-8.8-4.9-14
		c0.4-17.8,3.1-35.5,8-52.5c-5.5,4-10,9.3-13.1,15.3c-1.4-5.4-2.8-10.8-4.2-16.1c0.7,6.8-1,9.9-3.2,19.9
		C467.6,255.8,466.3,284,466.3,284z"/>
</g>
<g>
	<path fill="#FFFFFF" d="M259.7,353.2c-1.3-2,0.4-4.9,2.7-5.7c2.3-0.8,4.8-0.2,7.1,0.5c9.1,2.6,19,6.8,22.5,15.6
		c1.4,3.6,1.6,7.6,1.4,11.5c-0.1,4.1-0.5,8.3-1.2,12.4c-0.5,2.9-1.1,5.9-2.6,8.5c-3.1,5.4-9.2,8.1-15.1,10.1
		c-4.2,1.4-8.1,2.3-12.3-1.4C258,401,259.7,353.2,259.7,353.2z"/>
</g>
<g>
	<path fill="#FFFFFF" d="M306.7,364.9c-3.9,0.4-7.1,3.7-8.5,7.4s-1.4,7.8-1.5,11.7c0,9.2,0,18.4-0.1,27.7c0,1.9,0,3.9,0.9,5.6
		c2.1,3.9,7.5,4.3,11.9,4.1c3.2-0.1,6.6-0.3,9.4-1.8s5.2-4.6,4.6-7.8c-0.2-1-0.7-1.9-1.4-2.5c-2.2-1.8-5.6-0.3-8.4-1
		c-2.1-0.5-3.8-2.5-4.1-4.7c-0.2-2.2,1-4.5,3-5.4c1.8-0.9,4.1-0.7,5.8-1.9c2.1-1.5,2.1-5.1,0-6.6c-2-1.5-4.9-0.9-7-2.3
		c-2.1-1.4-2.5-4.5-1.6-6.8c1-2.3,3-4,5.1-5.4c2.6-1.8,5.8-3.8,5.9-6.9c0.1-2.8-2.6-5.1-5.4-5.5c-2.8-0.4-5.5,0.7-8,2.1"/>
</g>
<g>
	<path fill="#FFFFFF" d="M331.2,327.6c-3.7-1.2-7.9,0.6-10.5,3.4c-2.7,2.8-4.1,6.6-5.4,10.2c-1.6,4.4-3,9.6-0.2,13.3
		c2.1,2.7,5.7,3.6,9,4.6c3.3,1,6.9,2.9,7.6,6.2c0.9,4.2-3.3,7.9-7.4,9.3c-1.6,0.5-3.4,1-4.5,2.2c-1.3,1.5-1.5,3.8-0.6,5.6
		c0.9,1.8,2.6,3.1,4.4,3.8c4.8,1.8,10.4,0.1,14.5-3c5.1-3.8,8.8-9.7,9.3-16.1s-2.5-13-7.8-16.5c-3-1.9-6.7-2.9-9.2-5.4
		c-0.5-0.5-1-1.1-1.2-1.8c-0.6-2,1-4.1,2.8-5.3c1.8-1.2,3.9-2.1,4.9-4c0.9-1.8,0.5-4.1-0.9-5.5c-1.4-1.4-3.8-1.7-5.5-0.7"/>
</g>
<g>
	<path fill="#FFFFFF" d="M353.6,335.6c-1.2,17.8-1.5,35.7-1,53.5c0.1,2.1,0.3,4.4,2,5.6c1.9,1.4,4.8,0.3,6.2-1.7s1.6-4.5,1.7-6.8
		c1-14.1,2.1-28.3,1.8-42.4c-0.1-3.3-0.3-6.8-2.4-9.2c-2.1-2.5-6.9-2.7-8.2,0.3"/>
</g>
<g>
	<path fill="#FFFFFF" d="M378,339c-3.6,4.7-4,7.5-4.9,11.7c-1.6,6.9-2.7,13.9-3.4,21c-0.4,3.9-0.4,8.5,2.5,11.2
		c1.4,1.3,3.3,1.9,5.1,2.4c4.3,1.3,9.4,2.2,13.1-0.3c3-2,4.3-5.6,5.2-9.1c0.6-2.6,1-5.2,1.3-7.8c0.3-3.3,0.2-6.9-1.7-9.5
		c-1.9-2.7-6.4-3.7-8.5-1.2c-1.5,1.8-1.4,4.4-0.7,6.7c0.7,2.2,1.8,4.4,1.9,6.7c0.1,2.3-1.4,5-3.7,5.1c-1.6,0.1-3.1-1.1-3.8-2.5
		c-0.7-1.4-0.9-3.1-0.9-4.7c-0.1-4.4,0.4-8.8,1.6-13c0.8-3,2-6.1,4.2-8.2c1.8-1.8,4.2-2.8,6.4-4.2c2.2-1.4,4.2-3.3,4.6-5.8
		c0.4-2.5-1.7-5.4-4.2-5C392,332.4,383.9,331.5,378,339z"/>
</g>
<g>
	<path fill="#FFFFFF" d="M405.6,341.1c-2.7,14.2-4.9,28.4-6.6,42.7c-0.2,1.5-0.3,3.3,0.9,4.3c1.2,1,3,0.6,4.1-0.5
		c1.1-1.1,1.6-2.6,2-4c1.9-6.2,3.7-12.4,5.4-18.6c2.8,3.8,3.1,8.8,3.6,13.5c0.5,4.7,1.6,9.8,5.4,12.6c0.9,0.6,1.9,1.2,3,0.9
		c1.3-0.4,1.9-2,2.3-3.3c3.6-13.5,6.5-27.1,8.5-40.9c0.3-2.3,0-5.6-2.3-5.9c-1.7-0.2-3,1.4-3.9,2.9c-3.5,6.1-5.8,12.9-6.9,19.8
		c-3.3-6.3-3.5-13.8-5.4-20.7c-0.5-1.9-1.1-3.8-2.4-5.2c-1.3-1.5-3.4-2.3-5.2-1.7C408.1,336.9,406.2,337.7,405.6,341.1z"/>
</g>
</svg>
